<?xml version="1.0" standalone="no"?>
<!DOCTYPE svg PUBLIC "-//W3C//DTD SVG 20010904//EN"
 "http://www.w3.org/TR/2001/REC-SVG-20010904/DTD/svg10.dtd">
<svg version="1.0" xmlns="http://www.w3.org/2000/svg"
 width="110.000000pt" height="106.000000pt" viewBox="0 0 110.000000 106.000000"
 preserveAspectRatio="xMidYMid meet">
<metadata>
Created by potrace 1.10, written by Peter Selinger 2001-2011
</metadata>
<g transform="translate(0.000000,106.000000) scale(0.100000,-0.100000)"
fill="#000000" stroke="none">
<path d="M17 1012 c-15 -17 -17 -65 -17 -484 0 -489 3 -528 43 -528 19 0 19 1
4 18 -15 17 -17 66 -17 506 l0 488 33 -7 c97 -21 354 -142 436 -206 13 -11 28
-19 34 -19 5 0 37 18 71 41 85 57 249 136 353 169 l88 28 3 -474 c2 -397 0
-480 -12 -509 -12 -29 -13 -35 -1 -35 31 0 35 61 35 534 0 491 0 496 -42 496
-56 0 -318 -113 -428 -184 -30 -20 -57 -36 -61 -36 -3 0 -24 12 -45 26 -36 25
-96 59 -184 105 -69 36 -222 88 -261 89 -9 0 -23 -8 -32 -18z"/>
<path d="M413 660 c-40 -39 -73 -74 -73 -78 0 -5 33 24 73 63 39 40 79 74 87
78 13 5 13 5 0 6 -8 1 -48 -31 -87 -69z"/>
<path d="M161 662 c-11 -21 3 -52 25 -52 16 0 90 -79 86 -92 -1 -5 2 -7 7 -4
5 4 26 -5 46 -18 60 -41 132 -60 223 -60 74 1 90 5 155 38 94 47 216 160 200
184 -5 9 -21 17 -34 17 -20 0 -24 -6 -27 -37 -3 -30 -12 -46 -50 -79 -129
-115 -316 -132 -457 -41 -56 35 -115 100 -108 118 13 36 -48 60 -66 26z"/>
<path d="M160 354 c-28 -47 -49 -88 -46 -91 2 -3 14 14 26 37 12 23 37 64 57
91 19 27 30 49 25 49 -5 0 -33 -39 -62 -86z"/>
</g>
</svg>
